<?xml version="1.0" encoding="utf-8"?>
<!-- Designed by Vexels.com - 2019 All Rights Reserved - https://vexels.com/terms-and-conditions/  -->
<svg version="1.1" id="Layer_1" xmlns="http://www.w3.org/2000/svg" xmlns:xlink="http://www.w3.org/1999/xlink" x="0px" y="0px"
	 viewBox="0 0 1200 1200" enable-background="new 0 0 1200 1200" xml:space="preserve">
<g>
	<g>
		<path fill="#E2BA3B" d="M613.096,1039.571C612.938,1039.554,612.36,1039.491,613.096,1039.571L613.096,1039.571z"/>
		<path fill="#E2BA3B" d="M826.019,863.762C823.997,864.193,825.587,863.854,826.019,863.762L826.019,863.762z"/>
		<path fill="#E2BA3B" d="M822.864,864.433c0.31-0.065,0.699-0.148,0.699-0.148S823.17,864.369,822.864,864.433z"/>
		<path fill="#E2BA3B" d="M822.864,864.433C822.629,864.482,822.853,864.436,822.864,864.433
			C822.831,864.44,822.835,864.44,822.864,864.433z"/>
		<path fill="#E2BA3B" d="M870.524,569.246c-1.719-3.056-2.719-9.317,0.732-11.755c-0.095-0.075-0.177-0.163-0.27-0.239
			c1.737-0.587,3.164-1.756,4.447-3.096c-0.005,0.11,0.001,0.215-0.011,0.327c7.181-5.26,10.075-7.785,14.201-16.005
			c2.219-4.421,0.637-12.307,7.97-8.935c8.227,3.783,2.732,21.254-1.496,28.98c-1.812,2.42-3.662,4.794-6.135,6.521
			c-1.422,0.993-2.884,1.899-4.207,2.965C880.466,571.829,875.023,577.245,870.524,569.246z"/>
		<path fill="#A38027" d="M871.367,385.386c2.075,9.915,8.006,29.687,5.136,39.189c-2.509,8.307-11.345,18.167-15.247,26.717
			c-4.183,9.165-7.269,18.913-10.084,28.614c-0.701-2.944-9.98-43.002-16.593-40.048c-6.695,2.991,3.079,31.319,3.575,33.293
			c1.629,6.49,4.63,13.578,4.202,20.598c-0.581,9.511-5.604,13.688-10,22.138c-7.703,14.807-10.121,32.653-12.689,49.148
			c-3.343-11.324-11.754-17.46-12.147-2.227c-0.249,9.652,7.86,21.816,5.768,31.669c-2.548,11.997-37.063,65.033-15.289,73.173
			c-11.207,2.713-28.679,53.479-33.352,64.315c-0.085-2.993,0.924-23.508-7.94-16.833c-6.124,4.612,0.526,28.573-1.183,36.489
			c-3.998,18.524-25.04,38.713-37.112,54.4c-12.674,16.47-26.689,28.038-39.976,44.001c-6.19,7.438-11.85,15.179-17.406,23.149
			c-4.351,6.242-9.755,20.185-14.672,24.878c-8.355,7.974-20.893,10.18-29.552,19.299c-6.797,7.158-13.231,15.203-18.179,23.892
			c-6.518,11.447-17.234,36.307-15.049,49.896c1.291,8.03,5.454,6.741,2.211,12.294c-2.82,4.83-10.079,5.05-14.142,7.145
			c-6.599,3.404-12.365,7.018-19.788,9.699c-17.593,6.355-41.317,15.051-56.415,18.006c-39.806,7.791-78.571,1.684-118.525,1.73
			c-21.833,0.026-42.544,0.176-64.313-2.19c-7.168-0.779-33.989-3.646-21.528,11.586c3.235,3.954,21.859,7.358,25.639,8.291
			c0.307,0.076,0.617,0.138,0.925,0.211l78.114,9.897c28.162,1.247,56.526-1.693,84.472-5.009
			c14.799-1.756,28.861-5.76,43.188-9.911c12.615-3.655,26.756-13.185,39.197-15.246c8.379-1.387,23.13,7.014,33.196,8.845
			c11.811,2.149,25.292,5.327,37.29,4.865c5.075-0.195,10.888,3.936,10.363-5.394c-0.257-4.572-12.831-14.617-15.907-18.722
			c45.318,9.772,79.197-11.503,102.484-52.01c6.84-11.897,5.815-20.667,19.332-22.51c10.005-1.364,22.945,3.524,32.739,5.499
			c6.883,1.388,31.37,4.985,18.831-10.744c-5.3-6.649-30.852-7.072-39.171-8.583c10.288-8.193,16.358-23.179,21.569-35.145
			c3.173-7.286,6.299-26.91,11.842-31.91c5.119-4.617,23.561-6.597,30.175-7.923c-0.196,0.043-0.246,0.052-0.408,0.083
			c8.73-1.885,40.631,0.917,34.794-14.674c-5.494-14.674-49.198,2.5-60.218,6.515c3.554-11.655,15.039-13.222,23.308-22.825
			c10.381-12.058,15.969-28.22,20.093-43.64c1.665-6.225,1.697-14.798,4.13-20.564c2.939-6.964,2.641-7.003,9.298-11.938
			c9.585-7.106,13.96-15.836,18.204-27.281c2.163-5.833,3.303-12.415,5.825-18.042c5.348-11.934,3.167-7.216,15.125-12.773
			c10.019-4.656,27.449-16.624,31.823-27.623c1.556-3.914,3.2-6.722,1.28-11.148c-4.664-10.75-10.696-0.605-15.456,3.786
			c-8.034,7.412-16.859,14.698-27.064,18.418c-0.2-2.373-2.705-6.772-2.565-8.463c0.061-0.736,9.042-9.736,10.019-11.358
			c8.356-13.879,10.651-30.641,10.99-46.681c0.21-9.92-1.353-20.146-0.503-30.032c0.732-8.518,0.366-5.875,2.788-11.869
			c7.002-17.331,11.1-29.848,10.396-49.576c-0.188-5.276-4.327-20.921-2.35-24.66c1.333-2.52,12.403-7.896,15.062-10.391
			c8.207-7.702,19.219-23.549,6.923-34.369c-9.021-7.938-14.25,3.405-21.548,9.925c-8.471,7.568-17.05,12.519-23.828,21.866
			c-1.167-17.372-2.692-36.799-3.028-53.261c-0.409-20.028,0.535-43.116-9.125-61.727
			C869.107,351.929,869.972,378.725,871.367,385.386z"/>
		<path fill="#FFF7FF" d="M559.749,1023.428c-2.16,4.83,1.132,3.327-3.189,7.313c-3.208,2.96-9.668,4.776-13.619,6.454
			c-10.63,4.515-21.784,7.341-32.901,10.246c-15.106,3.948-29.789,5.59-45.229,6.855c-38.775,3.177-76.804,2.621-115.356-2.497
			c48.371-1.103,98.294,4.671,146.151-5.927c14.553-3.144,36.997-11.242,53.728-18.408c1.581-0.673,0.951-0.403,0.159-0.065
			C552.87,1025.959,556.288,1024.633,559.749,1023.428z"/>
		<path fill="#E2BA3B" d="M572.933,1022.304c-0.206,0.103-10.178,6.521-5.43,2.044
			C569.293,1021.253,571.104,1020.572,572.933,1022.304z"/>
		<path fill="#E2BA3B" d="M626.107,1041.01c-16.92-1.97-36.367-1.443-52.005-9.182c7.486-3.765,7.181-2.781,14.157-1.5
			c3.409,0.626,3.423,5.881,7.141,5.454c11.186-1.285,5.285-11.617-0.969-14.386c0.163-0.096,0.275-0.151,0.365-0.189
			C606.238,1015.012,620.253,1032.852,626.107,1041.01z"/>
		<path fill="#E2BA3B" d="M807.868,769.509c0.55-0.399,1.576-1.143-0.011,0.009c-0.428,0.31-0.29,0.21-0.014,0.01l-3.829,2.67
			c3.163-15.046-4.068-27.236,6.365-38.244c13.395-14.134,41.23-17.376,57.967-27.71c-2.556,8.375-13.42,44.727-22.911,45.591
			c-0.778,0.071-4.266-6.416-7.691-6.456c-3.174-0.037-4.948,3.734-7.075,5.246C823.081,756.016,815.767,763.776,807.868,769.509z"
			/>
		<path fill="#E2BA3B" d="M782.994,825.336c-8.45,8.753-19.819,12.876-28.462,20.878c0.883-9.051,1.169-18.147,1.997-27.204
			c1.533,15.825,9.199-3.656,9.863-4.587c4.041-5.666,8.693-8.304,14.852-11.558c16.173-8.544,34.422-14.583,49.503-25.17
			c-5.912,21.885-15.342,42.018-34.464,54.313c5.072-6.649,19.439-20.993,12.169-30.21c0.294,0.372,0.585,0.74-0.005-0.007
			c-0.21-0.265-0.304-0.384-0.327-0.414c0.036,0.045,0.179,0.227,0.325,0.41C802.325,794.073,786.864,821.327,782.994,825.336z"/>
		<path fill="#E2BA3B" d="M773.639,853.034c0.13-0.072,0.262-0.146,0.411-0.23c-3.767,2.078-7.618,3.967-11.553,5.669
			c11.358-6.442,22.658-12.493,31.091-23.035c-3.89,9.416-9.755,11.908-19.539,17.366
			C773.879,852.901,773.763,852.966,773.639,853.034z"/>
		<path fill="#E2BA3B" d="M694.754,941.554c8.381-16.437,32.724-11.395,45.532-26.478c2.279-2.684,10.806-12.647,2.428-14.958
			c-2.978-0.822-6.842,7.337-8.664,9.03c-9.997,9.286-22.385,15.381-34.788,20.544c2.175-7.199,2.705-14.385,2.828-21.886
			c5.398,2.743,11.452-10.11,15.18-13.093c6.969-5.574,17.346-8.179,25.523-11.139c14.693-5.316,29.084-10.374,42.457-18.777
			c-5.132,17.506-12.518,38.291-23.275,52.839c-4.186,5.661-17.789,9.242-18.038,12.752c-3.401-5.99-14.055,0.596-17.792,1.997
			C715.84,936.247,705.412,939.015,694.754,941.554z"/>
		<path fill="#E2BA3B" d="M622.349,1009.883c12.762,0.146,76.5-18.211,70.638-38.066c-3.67-12.444-52.552,19.07-61.139,20.734
			c12.007-11.93,23.743-23.565,39.119-30.662c18.848-8.7,40.141-9.956,59.678-16.807c-11.609,24.797-24.567,49.207-49.198,62.473
			C662.543,1017.737,642.412,1013.693,622.349,1009.883z"/>
		<path fill="#E2BA3B" d="M636.724,914.834c2.658-2.021,5.394-3.918,8.236-5.65c-8.555,16.104-0.855,88.107-34.118,83.49
			c3.674-5.951,29.622-41.506,15.042-44.185c-9.857-1.811-22.623,29.834-24.756,34.001c-1.131,2.002-2.331,3.958-3.6,5.868
			c9.146-26.726,15.681-53.791,38.02-72.62c0.019-0.022,0.11-0.101,0.32-0.276C636.996,914.597,637.024,914.591,636.724,914.834z"/>
		<path fill="#E2BA3B" d="M689.347,857.066c-5.555,16.896,2.39,39.066,1.415,56.778c-1.433,26.03-13.14,30.498-31.923,42.601
			c6.114-9.018,30.326-55.251,22.844-65.396c-9.261-12.555-16.798,20.414-18.987,26.103c-4.297,11.169-8.379,22.954-15.257,32.723
			c1.362-14.876-0.314-28.289,6.753-41.181c7.163-13.067,16.519-26.102,25.239-38.531c-0.172,0.246-0.359,0.513-0.546,0.778
			c0.172-0.245,0.358-0.51,0.574-0.818C682.617,865.657,685.913,861.304,689.347,857.066z"/>
		<path fill="#E2BA3B" d="M749.935,789.923c0.005-0.006-0.02,0.029-0.055,0.079c-9.13,11.865-1.49,44.406-3.681,59.112
			c-1.602,10.75-5.177,17.74-14.712,21.986c3.029-6.851,8.186-19.417,7.022-27.177c-1.141-7.609-8.569-15.266-15.1-7.087
			c-5.703,7.142,5.037,32.022-11.033,37.541c-17.476,6.002-6.179-24.993-2.271-31.435c4.107-6.77,13.294-14.791,18.243-21.843
			c7.236-10.31,14.213-20.804,21.512-31.068C749.417,790.658,747.111,793.893,749.935,789.923z"/>
		<path fill="#E2BA3B" d="M789.535,713.751c1.048,15.05,4.984,30.565,4.638,45.684c-0.437,19.058-2.144,21.057-17.625,30.433
			c3.322-5.633,15.383-38.292,5.828-41.018c-8.826-2.519-23.16,42.973-10.267,43.833c-8.761,6.008-13.271,12.238-15.252,22.989
			c2.05-19.869,9.55-39.743,14.029-58.319c2.944-12.211,10.488-25.573,16.274-38.276
			C787.952,717.302,788.743,715.527,789.535,713.751z"/>
		<path fill="#E2BA3B" d="M821.263,616.91c1.656,0.46,7.241,37.66,8.18,41.382c2.195,8.699,2.191,36.922,8.587,41.021
			c-5.043,2.792-10.198,5.357-15.403,7.8c1.598-7.494,4.576-22.927,2.307-30.867c-3.149-11.021-9.894-11.835-13.204-1.057
			c-4.831,15.731,0.219,32.153-9.474,45.722c-0.637-9.376,9.07-48.486-1.49-53.004c8.58-1.828,14.067-33.085,16.909-42.933
			c-0.41,1.054-0.642,1.554,0.519-1.632C819.218,621.198,820.24,619.054,821.263,616.91z"/>
		<path fill="#E2BA3B" d="M834.18,619.819c4.546,10.544,6.195,4.295,2.076,17.347C835.369,631.402,834.559,625.648,834.18,619.819z"
			/>
		<path fill="#E2BA3B" d="M861.97,610.564c9.325-11.924,20.576-20.216,33.827-26.839c-1.825,24.636,3.598,52.633-11.176,74.227
			c-11.393,16.652-20.864,27.001-40.242,37.82c0.368-2.422,0.571-4.861,0.609-7.316c11.002,13.214,42.296-53.86,37.119-67.22
			c-9.32-24.047-16.777,20.274-18.846,25.826c-4.166,11.181-10.716,19.48-18.721,28.001c-1.973-13.344-2.72-11.585,0.782-22.751
			C849.77,638.125,852.571,622.581,861.97,610.564z"/>
		<path fill="#E2BA3B" d="M854.325,558.672c2.267,8.178,5.815,17.972,6.186,26.561c0.404,9.354-0.973,7.822-7.939,16.878
			c0.677-5.497,4.111-28.848-7.655-27.118c-7.917,1.164-8.365,24.164-11.034,31.683c0.169-11.481-2.947-19.733-2.897-29.57
			c0.064-12.432,3.737-27.667,7.283-39.935c0.137-0.479,0.337-1.166,0.624-2.139c0.152-0.429,0.234-0.64,0.268-0.705
			C847.311,512.391,851.6,548.842,854.325,558.672z"/>
		<path fill="#E2BA3B" d="M879.942,528.246c8.201-10.935,15.432-22.623,23.85-33.381c1.466,13.911,6.998,44.771-1.458,60.149
			c0.035,0.379-0.071,0.781-0.398,1.148c-0.63,0.706-1.224,1.454-1.805,2.215c0.121,0.283,0.157,0.604,0.066,0.936
			c-1.612,5.893-6.878,14.589-13.14,16.076c-2.614,2.832-9.235,4.398-12.643,6.467c0.168-0.102,1.068-0.648,1.639-0.995
			c-0.329,0.2-0.838,0.508-1.639,0.995c-1.394,0.847-7.867-26.545-9.36-32.087c0.182,0.365,0.396,0.699,0.592,1.049
			c-0.317-3.117,2.598-5.776,4.916-7.917c0.066-0.072,0.139-0.14,0.206-0.211C871.165,537.623,876.049,533.437,879.942,528.246z"/>
		<path fill="#E2BA3B" d="M873.96,466.017l2.071-4.002c1.083,12.52,6.039,32.108,2.231,43.892
			c-2.892,8.949-12.332,16.45-17.388,24.448c-3.241-22.969,4.232-43.61,13.076-64.315
			C873.954,466.031,873.956,466.026,873.96,466.017c0.024-0.055,0.038-0.09,0.056-0.13
			C873.999,465.927,873.98,465.97,873.96,466.017z"/>
		<path fill="#E2BA3B" d="M726.567,932.227C726.685,932.183,726.7,932.177,726.567,932.227L726.567,932.227z"/>
		<path fill="#E2BA3B" d="M861.621,611.01C861.595,611.044,861.593,611.045,861.621,611.01L861.621,611.01z"/>
		<path fill="#E2BA3B" d="M874.053,465.8C874.122,465.637,874.107,465.674,874.053,465.8L874.053,465.8z"/>
		<path fill="#E2BA3B" d="M873.713,466.595C873.619,466.814,873.581,466.904,873.713,466.595L873.713,466.595z"/>
		<path fill="#E2BA3B" d="M754.339,926.387C754.307,926.393,752.417,926.604,754.339,926.387
			C754.094,926.44,754.046,926.42,754.339,926.387z"/>
		<path fill="#E2BA3B" d="M559.622,1029.215C559.627,1029.233,557.557,1030.275,559.622,1029.215
			C559.622,1029.216,559.375,1029.342,559.622,1029.215z"/>
		<path fill="#E2BA3B" d="M826.019,863.762c0,0,0.188-0.043,0.286-0.062C826.156,863.732,826.019,863.762,826.019,863.762z"/>
		<path fill="#E2BA3B" d="M826.309,863.699c0,0-0.003,0.001-0.004,0.001C826.306,863.7,826.307,863.699,826.309,863.699z"/>
	</g>
	<g>
		<path fill="#E2BA3B" d="M616.753,913.2C616.575,913.265,615.923,913.5,616.753,913.2L616.753,913.2z"/>
		<path fill="#E2BA3B" d="M761.722,612.415C759.752,613.937,761.302,612.74,761.722,612.415L761.722,612.415z"/>
		<path fill="#E2BA3B" d="M758.649,614.79c0.302-0.233,0.681-0.526,0.681-0.526S758.947,614.561,758.649,614.79z"/>
		<path fill="#E2BA3B" d="M758.649,614.79C758.418,614.965,758.638,614.798,758.649,614.79
			C758.616,614.814,758.62,614.812,758.649,614.79z"/>
		<path fill="#E2BA3B" d="M668.541,272.083c-3.315-2.389-7.39-8.605-4.844-13.037c-0.138-0.031-0.268-0.083-0.405-0.116
			c1.588-1.542,2.565-3.548,3.304-5.662c0.047,0.121,0.104,0.231,0.145,0.357c5.21-9.424,7.115-13.658,7.619-24.667
			c0.271-5.921-5.21-13.581,4.299-13.793c10.668-0.238,13.123,21.447,12.272,31.978c-0.791,3.555-1.645,7.079-3.48,10.233
			c-1.055,1.813-2.195,3.555-3.108,5.396C680.48,269.655,677.216,278.336,668.541,272.083z"/>
		<path fill="#A38027" d="M581.371,73.736c6.984,9.585,22.839,27.761,24.301,39.492c1.279,10.256-3.508,25.498-3.613,36.745
			c-0.112,12.057,1.236,24.166,2.853,36.083c-2.165-2.801-31.342-41.059-37.046-34.415c-5.774,6.727,18.317,32.098,19.797,33.964
			c4.863,6.132,11.489,12.19,14.39,19.97c3.931,10.541,0.525,17.669-0.159,29.068c-1.199,19.973,4.749,40.45,9.886,59.55
			c-9.023-10.437-21.016-12.637-14.141,3.966c4.356,10.52,18.911,19.365,21.379,31.067c3.005,14.249-8.741,89.418,18.596,86.773
			c-10.764,8.792-5.251,72.588-5.09,86.701c-1.525-3.177-10.266-25.788-16.611-13.959c-4.382,8.172,14.254,30.48,16.207,39.897
			c4.571,22.033-8.408,54.788-13.887,77.998c-5.753,24.368-15.297,44.161-21.951,68.305c-3.1,11.249-5.484,22.547-7.646,34.036
			c-1.693,8.999-0.831,26.837-3.875,34.465c-5.173,12.961-17.612,21.904-22.564,36.255c-3.887,11.266-6.959,23.296-8.122,35.241
			c-1.532,15.737-1.158,48.109,7.704,61.592c5.237,7.967,9.099,4.398,8.27,12.075c-0.721,6.677-8.43,10.717-11.799,15.1
			c-5.472,7.12-9.947,14.031-16.654,20.807c-15.893,16.057-37.263,37.846-52.099,48.936
			c-39.115,29.239-83.767,42.974-126.751,63.955c-23.488,11.465-45.71,22.477-70.276,31.335
			c-8.089,2.917-38.332,13.882-17.623,23.749c5.377,2.561,27.054-3.531,31.569-4.508c0.367-0.079,0.731-0.175,1.097-0.257
			l88.823-30.27c30.911-13.411,60.033-31.436,88.526-49.644c15.088-9.643,28.307-21.32,41.74-33.293
			c11.828-10.543,22.484-28.21,34.888-36.945c8.354-5.883,28.257-4.568,39.97-7.87c13.742-3.875,29.776-7.516,42.47-14.299
			c5.369-2.869,13.605-1.467,8.57-11.235c-2.467-4.786-20.813-9.012-26.091-11.819c53.461-13.222,79.737-53.872,85.398-109.673
			c1.663-16.389-3.641-25.293,10.026-34.358c10.116-6.71,26.386-8.227,37.875-11.232c8.073-2.112,36.155-11.068,15.123-21.43
			c-8.89-4.38-36.597,8.55-46.275,11.282c7.149-14.209,6.504-33.52,6.38-49.13c-0.075-9.504-6.111-32.266-2.54-40.552
			c3.298-7.652,22.201-19.444,28.685-24.336c-0.19,0.149-0.24,0.184-0.399,0.303c8.494-6.603,44.174-20.299,30.423-34.023
			c-12.943-12.917-51.759,28.465-61.697,38.559c-1.758-14.407,9.854-22.111,14.154-36.779c5.398-18.418,3.67-38.742,0.723-57.5
			c-1.19-7.573-5.263-16.818-5.406-24.298c-0.172-9.035-0.512-8.921,4.289-17.721c6.913-12.671,7.441-24.359,6.526-38.901
			c-0.466-7.412-2.392-15.094-2.373-22.472c0.039-15.648-0.048-9.426,10.162-21.673c8.553-10.261,21.582-32.274,21.021-46.405
			c-0.2-5.028,0.225-8.912-3.963-12.67c-10.17-9.128-11.803,4.952-14.822,12.173c-5.097,12.187-11.105,24.653-20.308,34.003
			c-1.352-2.449-6.156-5.872-6.815-7.766c-0.287-0.824,5.069-15.216,5.343-17.474c2.346-19.316-3.214-38.561-10.533-56.004
			c-4.526-10.787-11.107-20.976-14.928-32.063c-3.292-9.552-2.42-6.515-2.685-14.237c-0.765-22.323-2.35-37.943-12.559-58.809
			c-2.73-5.58-14.68-20.253-14.343-25.313c0.227-3.41,9.568-14.997,11.235-19.075c5.145-12.59,9.407-35.416-9.013-40.621
			c-13.513-3.818-13.708,11.13-18.44,21.972c-5.493,12.585-12.355,22.407-15.174,36.02c-9.578-18.088-20.526-38.2-28.774-55.744
			c-10.034-21.344-20.079-46.69-39.392-61.663C562.911,38.907,576.679,67.296,581.371,73.736z"/>
		<path fill="#FFF7FF" d="M551.598,923.772c-0.011,6.33,2.812,2.989,0.071,9.542c-2.035,4.867-8.119,10.206-11.567,14.082
			c-9.279,10.429-19.932,19.314-30.506,28.264c-14.37,12.163-29.387,21.623-45.401,31.074
			c-40.215,23.733-81.416,43.057-125.365,57.745c51.538-26.529,108.041-46.466,154.477-82.945
			c14.158-11.008,34.438-31.482,49.015-47.962c1.379-1.553,0.83-0.932,0.14-0.153C545.406,930.099,548.45,926.881,551.598,923.772z"
			/>
		<path fill="#E2BA3B" d="M565.251,915.655c-0.172,0.219-7.832,12.351-4.866,5.045C560.829,916.431,562.451,914.748,565.251,915.655
			z"/>
		<path fill="#E2BA3B" d="M631.447,907.933c-19.156,6.744-39.837,17.499-60.376,17.361c6.255-7.974,6.398-6.755,14.519-9.031
			c3.969-1.113,6.502,4.536,10.299,2.129c11.425-7.243,0.123-15.273-7.935-14.977c0.129-0.189,0.223-0.307,0.302-0.395
			C597.607,890.357,621.239,902.219,631.447,907.933z"/>
		<path fill="#E2BA3B" d="M697.034,520.47c0.401-0.718,1.149-2.056-0.008,0.016c-0.312,0.558-0.211,0.377-0.011,0.018l-2.843,4.88
			c-3.803-17.852-17.425-27.185-11.469-44.5c7.648-22.231,36.056-40.303,49.121-60.194c1.261,10.353,6.981,55.174-2.822,61.077
			c-0.803,0.483-7.665-4.672-11.372-2.92c-3.434,1.623-3.538,6.612-5.103,9.353C706.945,497.977,702.789,510.161,697.034,520.47z"/>
		<path fill="#E2BA3B" d="M697.003,593.593c-4.903,13.849-15.165,24.242-20.635,37.384c-3.386-10.205-7.435-20.146-10.883-30.329
			c9.232,16.231,8.15-8.754,8.419-10.104c1.636-8.216,5.38-13.493,10.45-20.221c13.316-17.669,30.066-33.73,41.227-53.026
			c4.12,26.654,3.615,53.266-11.079,76.517c2.274-9.815,10.868-32.781-1.373-38.893c0.494,0.246,0.985,0.49-0.008-0.004
			c-0.353-0.176-0.511-0.254-0.551-0.274c0.06,0.03,0.301,0.15,0.546,0.272C702.834,549.814,699.248,587.25,697.003,593.593z"/>
		<path fill="#E2BA3B" d="M700.202,628.308c0.105-0.146,0.212-0.295,0.333-0.463c-3.059,4.21-6.299,8.261-9.719,12.155
			c9.139-12.884,18.404-25.317,22.432-41.083c0.324,12.173-4.796,17.929-12.712,28.928
			C700.396,628.039,700.302,628.169,700.202,628.308z"/>
		<path fill="#E2BA3B" d="M657.695,764.916c1.147-22.084,29.765-29.409,36.326-52.354c1.168-4.084,5.573-19.274-4.552-17.373
			c-3.599,0.676-3.85,11.482-5,14.259c-6.312,15.232-16.726,28.283-27.604,40.338c-1.107-8.888-3.979-16.901-7.44-25.04
			c7.124,0.125,7.483-16.882,10.068-22.046c4.831-9.651,14.753-17.891,22.138-25.361c13.268-13.42,26.336-26.403,36.706-42.454
			c2.862,21.532,4.869,47.774,0.259,69.069c-1.794,8.287-14.721,19.268-13.308,23.176c-6.53-4.666-14.843,8.004-18.195,11.47
			C677.85,748.158,667.951,756.6,657.695,764.916z"/>
		<path fill="#E2BA3B" d="M686.549,644.799c-0.157,0.172-0.295,0.32-0.421,0.452c-2.236,2.442-4.488,4.868-6.761,7.271
			c0.235-3.448,0.089-6.871-0.439-10.269C681.074,644.763,683.614,645.612,686.549,644.799z"/>
		<path fill="#E2BA3B" d="M612.491,876.397c13.807-6.528,73.62-59.679,57.799-77.979c-9.911-11.472-47.432,48.058-55.877,54.348
			c7.209-19.131,14.268-37.804,27.419-53.499c16.12-19.238,38.439-31.745,56.186-49.356c-0.617,32.773-2.871,65.836-23.029,93.02
			C659.519,863.794,635.912,869.988,612.491,876.397z"/>
		<path fill="#E2BA3B" d="M582.431,766.556c1.893-3.568,3.93-7.044,6.158-10.396c-1.495,21.816,41.287,95.286,3.271,107.742
			c1.104-8.33,12.002-60.195-4.975-55.441c-11.478,3.215-10.06,43.965-10.36,49.567c-0.258,2.747-0.613,5.481-1.064,8.203
			c-2.958-33.559-8.89-66.116,6.136-98.086c0.01-0.034,0.07-0.166,0.212-0.465C582.611,766.158,582.638,766.137,582.431,766.556z"/>
		<path fill="#E2BA3B" d="M611.402,676.806c2.114,21.097,21.287,40.799,28.723,60.374c10.927,28.769,0.466,39.712-13.954,62.58
			c2.261-12.91,6.175-75.36-6.739-82.36c-15.983-8.663-8.302,30.773-7.933,38.045c0.725,14.274,1.977,29.098-0.746,43.216
			c-5.66-16.726-13.89-30.285-12.459-47.865c1.451-17.818,5.277-36.751,8.709-54.697c-0.068,0.355-0.141,0.74-0.215,1.124
			c0.068-0.354,0.141-0.736,0.226-1.182C608.272,689.579,609.735,683.168,611.402,676.806z"/>
		<path fill="#E2BA3B" d="M644.454,572.793c0.002-0.008-0.008,0.042-0.022,0.114c-4.143,17.554,19.669,48.58,24.355,65.557
			c3.426,12.41,2.926,21.807-5.304,31.373c-0.022-8.961-0.49-25.188-5.46-32.932c-4.873-7.593-16.537-11.944-19.649,0.282
			c-2.717,10.675,20.762,31.83,6.108,46.189c-15.936,15.615-18.624-23.665-17.504-32.646c1.177-9.438,7.224-22.886,9.173-33.068
			c2.85-14.889,5.332-29.839,8.272-44.711C644.248,573.856,643.316,578.546,644.454,572.793z"/>
		<path fill="#E2BA3B" d="M650.589,470.056c8.338,15.651,20.007,30.288,26.876,46.744c8.659,20.743,7.779,23.789-4.393,41.991
			c0.877-7.804-1.785-49.276-13.376-47.205c-10.706,1.912-4.343,58.389,9.946,52.561c-6.552,11.057-8.422,20.125-5.404,32.736
			c-7.312-22.461-8.759-47.783-12.836-70.123c-2.681-14.686-0.961-33.021-0.818-49.726
			C650.586,474.708,650.587,472.382,650.589,470.056z"/>
		<path fill="#E2BA3B" d="M638.35,349.195c2.003-0.372,25.836,36.744,28.629,40.258c6.529,8.214,20.046,38.594,28.894,39.657
			c-4.091,5.647-8.41,11.109-12.843,16.465c-1.87-8.904-6.057-27.075-12.303-34.433c-8.67-10.213-16.319-7.556-14.719,5.78
			c2.336,19.463,15.638,34.495,11.705,54.178c-5.178-9.758-13.464-56.941-26.995-56.273c8.36-6.463-0.707-42.982-2.366-55.072
			c0.064,1.349,0.053,2.01-0.223-2.029C638.203,354.882,638.276,352.039,638.35,349.195z"/>
		<path fill="#E2BA3B" d="M653.647,345.56c9.945,8.967,8.725,1.377,10.545,17.585C660.476,357.405,656.848,351.635,653.647,345.56z"
			/>
		<path fill="#E2BA3B" d="M679.127,321.039c4.325-17.72,12.464-32.539,23.554-46.611c9.837,27.474,29.087,54.768,23.528,85.752
			c-4.286,23.893-9.523,39.994-25.199,61.792c-0.764-2.8-1.713-5.531-2.849-8.194c18.173,8.46,19.726-80.133,7.753-91.801
			c-21.551-21.002-8.346,30.612-7.913,37.672c0.872,14.218-2.203,26.582-6.737,39.947c-8.517-13.329-8.477-11.045-10.058-24.899
			C679.198,357.096,674.766,338.898,679.127,321.039z"/>
		<path fill="#E2BA3B" d="M646.039,269.188c6.357,7.615,14.869,16.299,19.383,25.349c4.916,9.857,2.699,8.929-0.46,22.326
			c-1.905-6.271-9.395-33.205-21.231-25.18c-7.964,5.4,2.571,30.392,3.301,39.884c-5.318-12.447-12.625-19.696-17.283-30.311
			c-5.887-13.415-9.232-31.738-11.292-46.801c-0.082-0.587-0.196-1.431-0.352-2.629c-0.042-0.541-0.055-0.811-0.05-0.899
			C616.319,223.046,638.397,260.035,646.039,269.188z"/>
		<path fill="#E2BA3B" d="M659.038,223.017c3.59-16.067,5.774-32.436,9.681-48.426c8.242,14.206,28.98,44.526,27.245,65.508
			c0.219,0.389,0.298,0.878,0.121,1.445c-0.34,1.091-0.621,2.206-0.882,3.329c0.266,0.241,0.458,0.567,0.52,0.973
			c1.088,7.187-0.414,19.307-6.443,24.188c-1.457,4.417-7.833,9.572-10.511,13.585c0.132-0.197,0.839-1.257,1.287-1.929
			c-0.259,0.387-0.658,0.986-1.288,1.93c-1.095,1.642-21.184-24.452-25.447-29.635c0.371,0.298,0.761,0.545,1.14,0.819
			c-1.835-3.189,0.029-7.579,1.499-11.097c0.037-0.112,0.083-0.223,0.121-0.335C654.082,237.709,657.334,230.644,659.038,223.017z"
			/>
		<path fill="#E2BA3B" d="M622.788,159.168l0.312-5.393c7.163,12.909,21.882,31.397,23.428,46.076
			c1.174,11.148-5.393,24.168-7.005,35.425c-14.491-23.026-16.336-49.159-16.734-76.079
			C622.788,159.186,622.788,159.18,622.788,159.168c-0.001-0.072-0.002-0.116-0.003-0.169
			C622.786,159.051,622.787,159.106,622.788,159.168z"/>
		<path fill="#E2BA3B" d="M687.47,738.211C687.576,738.101,687.59,738.087,687.47,738.211L687.47,738.211z"/>
		<path fill="#E2BA3B" d="M678.965,321.702C678.952,321.753,678.952,321.754,678.965,321.702L678.965,321.702z"/>
		<path fill="#E2BA3B" d="M622.784,158.886C622.781,158.674,622.781,158.722,622.784,158.886L622.784,158.886z"/>
		<path fill="#E2BA3B" d="M622.799,159.92C622.803,160.204,622.805,160.322,622.799,159.92L622.799,159.92z"/>
		<path fill="#E2BA3B" d="M554.233,930.067C554.247,930.083,552.518,932.29,554.233,930.067
			C554.234,930.068,554.028,930.334,554.233,930.067z"/>
		<path fill="#E2BA3B" d="M761.722,612.415c0,0,0.182-0.145,0.278-0.217C761.856,612.31,761.722,612.415,761.722,612.415z"/>
		<path fill="#E2BA3B" d="M762.004,612.195c-0.001,0.001-0.003,0.002-0.004,0.003C762.002,612.197,762.003,612.196,762.004,612.195z
			"/>
	</g>
	<path fill="#E2BA3B" d="M614.073,995.648c-0.253,0.132-12.473,8.295-6.683,2.649C609.545,994.426,611.773,993.543,614.073,995.648z
		"/>
	<path fill="#E2BA3B" d="M500.42,968.052C500.426,967.956,500.419,968.036,500.42,968.052
		C500.421,968.039,500.42,968.05,500.42,968.052z"/>
	<path fill="#E2BA3B" d="M597.728,1004.495C597.735,1004.516,595.192,1005.852,597.728,1004.495
		C597.729,1004.495,597.424,1004.657,597.728,1004.495z"/>
	<g>
		<path fill="#E2BA3B" d="M506.245,910.17C506.114,910.272,505.635,910.641,506.245,910.17L506.245,910.17z"/>
		<path fill="#E2BA3B" d="M551.607,623.309C550.359,625.094,551.341,623.69,551.607,623.309L551.607,623.309z"/>
		<path fill="#E2BA3B" d="M549.66,626.093c0.192-0.273,0.432-0.617,0.432-0.617S549.849,625.824,549.66,626.093z"/>
		<path fill="#E2BA3B" d="M549.66,626.093C549.513,626.3,549.653,626.103,549.66,626.093
			C549.639,626.122,549.642,626.119,549.66,626.093z"/>
		<path fill="#E2BA3B" d="M391.018,368.006c-3.319-1.076-8.208-5.099-7.202-9.437c-0.121,0.012-0.241,0.004-0.362,0.013
			c0.929-1.698,1.239-3.614,1.328-5.555c0.068,0.087,0.142,0.162,0.208,0.255c1.971-9.168,2.498-13.169,0.202-22.375
			c-1.235-4.951-7.638-9.786,0.145-12.522c8.731-3.069,16.094,14.136,17.987,23.042c0.224,3.142,0.388,6.275-0.347,9.368
			c-0.422,1.778-0.933,3.52-1.232,5.283C400.257,362.79,399.705,370.821,391.018,368.006z"/>
		<path fill="#A38027" d="M270.349,228.066c8.114,6.017,25.654,16.721,29.748,25.992c3.58,8.106,3.389,21.953,6.073,31.247
			c2.877,9.964,6.97,19.577,11.237,28.961c-2.474-1.725-35.935-25.387-38.998-18.377c-3.1,7.097,22.997,21.512,24.675,22.651
			c5.517,3.743,12.468,6.949,16.774,12.578c5.835,7.626,4.784,14.416,7.028,23.992c3.932,16.779,13.874,32.048,22.811,46.4
			c-10.005-6.169-20.427-4.751-10.674,7.076c6.18,7.494,20.35,10.862,25.266,19.838c5.985,10.93,14.82,76.025,36.692,66.484
			c-6.703,10.143,13.551,61.22,17.159,72.803c-2.039-2.207-14.81-18.482-17.123-7.027c-1.598,7.913,19.25,21.274,23.179,28.506
			c9.192,16.922,6.566,47.404,7.768,68.002c1.262,21.626-1.727,40.505-1.263,62.188c0.216,10.103,1.035,20.053,2.083,30.101
			c0.821,7.87,5.925,22.335,5.295,29.44c-1.07,12.071-9.116,22.79-9.662,35.948c-0.428,10.329,0.004,21.068,1.988,31.222
			c2.613,13.378,10.895,39.949,21.516,48.671c6.277,5.154,8.58,1.173,9.787,7.721c1.05,5.695-4.306,11.1-6.003,15.619
			c-2.755,7.34-4.74,14.24-8.597,21.628c-9.14,17.51-21.38,41.217-30.873,54.35c-25.026,34.625-58.432,57.968-88.679,86.831
			c-16.529,15.772-32.125,30.83-50.183,44.744c-5.946,4.582-28.163,21.762-8.671,24.313c5.061,0.662,21.42-10.196,24.9-12.216
			c0.283-0.164,0.559-0.341,0.841-0.508l65.726-48.862c22.165-19.375,41.719-42.068,60.71-64.745
			c10.056-12.008,18.071-25.189,26.19-38.672c7.149-11.872,11.577-29.297,19.646-39.836c5.434-7.097,22.156-11.374,30.993-17.249
			c10.368-6.894,22.681-14.212,31.469-23.219c3.717-3.81,10.848-4.873,4.294-11.565c-3.211-3.279-19.367-1.82-24.407-2.71
			c40.79-25.293,52.428-65.861,43.349-113.359c-2.666-13.951-9.229-19.858-0.201-31.008c6.682-8.253,19.714-13.885,28.439-19.455
			c6.132-3.914,27.062-18.857,7.182-21.729c-8.403-1.214-28.047,16.901-35.347,21.759c2.39-13.632-2.897-29.368-6.843-42.196
			c-2.403-7.81-12.981-24.938-12.08-32.726c0.833-7.192,13.502-21.999,17.64-27.776c-0.12,0.174-0.152,0.217-0.254,0.357
			c5.372-7.728,31.396-28.622,16.686-36.225c-13.845-7.156-35.634,37.393-41.336,48.386c-4.997-11.396,2.674-20.871,2.603-34.115
			c-0.089-16.629-6.518-32.908-13.566-47.569c-2.845-5.919-8.478-12.439-10.438-18.563c-2.367-7.398-2.619-7.212-0.83-15.756
			c2.575-12.301,0.131-22.074-4.204-33.808c-2.21-5.981-5.688-11.792-7.49-17.876c-3.821-12.903-2.361-7.753,3.035-20.593
			c4.52-10.758,9.833-32.403,5.891-43.894c-1.403-4.089-2.01-7.403-6.386-9.372c-10.627-4.781-8.505,7.258-9.214,14.021
			c-1.198,11.414-3.078,23.303-8.357,33.485c-1.717-1.654-6.518-3.18-7.527-4.563c-0.439-0.602,0.429-13.902,0.099-15.836
			c-2.825-16.546-12.145-30.905-22.471-43.305c-6.386-7.669-14.317-14.291-20.196-22.396c-5.065-6.983-3.598-4.716-5.718-11.007
			c-6.128-18.185-11.281-30.628-24.831-45.07c-3.624-3.862-17.083-12.733-18.051-16.993c-0.653-2.871,4.19-14.933,4.558-18.742
			c1.138-11.759-0.972-31.713-17.43-31.04c-12.074,0.493-8.552,12.862-9.781,23.069c-1.426,11.848-4.661,21.789-3.631,33.763
			c-12.346-12.323-26.319-25.944-37.435-38.177c-13.524-14.883-28.042-33.06-47.642-40.194
			C246.562,204.342,264.897,224.024,270.349,228.066z"/>
		<path fill="#FFF7FF" d="M455.167,936.429c1.55,5.218,3.053,1.705,2.409,7.843c-0.478,4.558-4.176,10.595-6.062,14.717
			c-5.077,11.091-11.665,21.281-18.173,31.503c-8.844,13.891-18.887,25.73-29.753,37.829
			c-27.288,30.385-56.474,57.403-89.067,81.341c35.929-35.738,77.571-67.383,106.846-109.944
			c8.954-12.883,20.62-35.214,28.571-52.717c0.754-1.651,0.454-0.992,0.077-0.164C451.624,943.309,453.34,939.838,455.167,936.429z"
			/>
		<path fill="#E2BA3B" d="M464.417,926.064c-0.088,0.226-3.411,12.285-2.766,5.467C460.966,927.894,461.888,926.071,464.417,926.064
			z"/>
		<path fill="#E2BA3B" d="M517.055,901.873c-14.122,10.716-28.512,25.147-45.468,30.565c3.189-8.254,3.608-7.289,9.738-11.351
			c2.996-1.986,6.474,1.986,9.01-1.02c7.629-9.044-3.66-12.617-10.226-10.202c0.06-0.19,0.109-0.313,0.152-0.407
			C484.845,896.507,507.237,899.914,517.055,901.873z"/>
		<path fill="#E2BA3B" d="M475.666,564.978c0.154-0.7,0.44-2.003-0.003,0.015c-0.12,0.544-0.081,0.368-0.004,0.018l-1.14,4.786
			c-7.53-13.684-21.052-17.705-20.409-33.575c0.826-20.376,19.781-42.917,25.646-62.824c3.589,8.19,19.34,43.578,12.717,51.081
			c-0.543,0.615-7.466-1.785-10.088,0.657c-2.43,2.262-1.286,6.4-1.901,9.08C478.292,543.777,477.869,554.934,475.666,564.978z"/>
		<path fill="#E2BA3B" d="M493.649,625.233c-0.629,12.73-6.524,24.058-7.794,36.359c-5.303-7.496-11.087-14.596-16.436-22.057
			c11.603,10.886,4.559-9.408,4.448-10.592c-0.675-7.209,1.109-12.565,3.63-19.475c6.619-18.144,16.464-35.888,20.908-54.792
			c9.959,20.85,16.096,42.912,9.717,66.026c-0.544-8.699,0.881-29.935-10.71-31.674c0.468,0.07,0.932,0.138-0.008-0.002
			c-0.334-0.05-0.484-0.072-0.521-0.077c0.057,0.008,0.285,0.042,0.517,0.077C487.672,587.593,493.938,619.402,493.649,625.233z"/>
		<path fill="#E2BA3B" d="M504.835,652.972c0.05-0.148,0.102-0.3,0.16-0.471c-1.484,4.292-3.155,8.503-5.014,12.632
			c4.357-13.077,8.928-25.816,8.364-39.89c3.265,9.942,0.464,16.063-3.349,27.258C504.928,652.698,504.883,652.831,504.835,652.972z
			"/>
		<path fill="#E2BA3B" d="M503.458,776.972c-4.493-18.504,17.28-32.247,17.035-52.918c-0.044-3.679-0.155-17.38-8.029-13.087
			c-2.799,1.526-0.344,10.497-0.608,13.094c-1.449,14.25-6.815,27.808-12.809,40.67c-3.101-7.025-7.441-12.853-12.297-18.626
			c5.9-1.816,2.008-15.924,2.866-20.875c1.604-9.253,7.748-18.714,11.993-26.857c7.627-14.63,15.195-28.847,19.786-44.864
			c7.661,16.969,15.777,38.05,17.223,56.836c0.563,7.311-7.383,19.839-5.256,22.679c-6.529-2.086-10.258,10.592-12.166,14.351
			C515.936,757.736,509.86,767.358,503.458,776.972z"/>
		<path fill="#E2BA3B" d="M493.67,880.996c9.768-9.097,45.958-68.998,28.415-79.814c-10.991-6.783-27.243,52.37-32.652,59.827
			c1.228-17.704,2.445-34.99,9.415-51.462c8.543-20.192,23.851-36.508,34.136-55.797c7.563,27.168,13.849,55.015,3.936,82.841
			C529.312,857.947,511.388,869.407,493.67,880.996z"/>
		<path fill="#E2BA3B" d="M441.852,798.594c0.681-3.45,1.503-6.862,2.514-10.224c4.141,18.377,57.484,67.386,29.23,87.888
			c-1.142-7.16-4.936-52.827-17.753-44.338c-8.665,5.74,2.54,38.932,3.672,43.629c0.464,2.333,0.845,4.681,1.143,7.045
			c-10.702-26.852-23.608-52.078-19.101-82.466c0-0.031,0.017-0.156,0.06-0.44C441.902,798.218,441.919,798.193,441.852,798.594z"/>
		<path fill="#E2BA3B" d="M443.617,716.847c6.938,16.812,27.587,27.881,38.534,42.006c16.088,20.76,10.164,32.593,3.915,55.318
			c-1.316-11.245-13.472-63.752-25.836-66.041c-15.302-2.833,0.739,27.59,2.834,33.482c4.113,11.565,8.795,23.441,10.028,35.807
			c-8.783-12.256-18.903-21.211-22.053-36.08c-3.193-15.071-4.703-31.7-6.296-47.41c0.032,0.311,0.066,0.648,0.1,0.984
			c-0.031-0.31-0.065-0.645-0.105-1.035C444.184,728.213,443.811,722.537,443.617,716.847z"/>
		<path fill="#E2BA3B" d="M445.232,622.248c0-0.007,0.004,0.037,0.01,0.1c0.909,15.579,28.169,34.727,36.212,47.453
			c5.879,9.302,7.781,17.179,3.356,27.277c-2.225-7.377-6.607-20.621-12.609-25.662c-5.885-4.943-16.566-5.386-16.119,5.525
			c0.391,9.527,24.945,20.633,16.408,36.41c-9.284,17.157-21.172-14.482-22.461-22.183c-1.354-8.093,0.315-20.801-0.587-29.716
			c-1.319-13.034-2.956-26.021-4.196-39.066C445.324,623.179,445.711,627.294,445.232,622.248z"/>
		<path fill="#E2BA3B" d="M424.985,535.951c10.724,10.649,23.943,19.566,33.656,31.274c12.243,14.758,12.268,17.505,6.722,35.78
			c-1.199-6.666-13.607-40.118-22.647-35.29c-8.35,4.459,10.802,49.276,21.14,40.626c-2.675,10.875-1.983,18.849,3.61,28.427
			c-11.556-16.536-18.984-37.009-27.846-54.317c-5.826-11.378-8.924-26.947-12.921-40.749
			C426.127,539.785,425.556,537.868,424.985,535.951z"/>
		<path fill="#E2BA3B" d="M385.135,439.67c1.558-0.846,30.335,23.315,33.502,25.458c7.402,5.009,26.021,26.399,33.573,24.891
			c-1.979,5.754-4.193,11.418-6.527,17.024c-3.733-6.833-11.659-20.676-18.617-25.056c-9.658-6.08-15.306-1.83-10.703,8.726
			c6.718,15.407,21.38,24.208,22.987,41.484c-6.669-6.645-25.117-43.287-36.1-39.093c5.296-7.576-11.168-35.223-15.512-44.736
			c0.385,1.094,0.539,1.641-0.684-1.611C386.414,444.395,385.774,442.033,385.135,439.67z"/>
		<path fill="#E2BA3B" d="M396.843,432.555c10.402,4.71,7.528-1.215,13.019,11.648C405.386,440.475,400.976,436.699,396.843,432.555
			z"/>
		<path fill="#E2BA3B" d="M411.796,405.49c-0.801-15.764,2.255-30.166,7.927-44.747c14.871,19.986,37.453,37.29,40.504,64.314
			c2.353,20.84,2.004,35.516-5.544,57.697c-1.319-2.101-2.774-4.096-4.365-5.984c17.056,2.076-3.483-71.335-16.221-77.723
			c-22.929-11.499,0.663,27.469,2.758,33.169c4.22,11.479,4.731,22.494,4.288,34.727c-10.3-8.688-9.704-6.817-14.419-17.805
			C420.735,435.178,412.602,421.378,411.796,405.49z"/>
		<path fill="#E2BA3B" d="M371.765,371.682c7.113,4.562,16.264,9.424,22.213,15.665c6.478,6.797,4.423,6.63,5.119,18.518
			c-3.114-4.654-15.918-24.828-23.693-15.028c-5.231,6.594,9.603,24.348,12.543,31.972c-7.447-8.822-15.253-12.827-21.705-20.318
			c-8.154-9.467-15.422-23.663-20.829-35.518c-0.212-0.461-0.514-1.127-0.938-2.071c-0.168-0.435-0.245-0.654-0.262-0.728
			C335.915,341.669,363.215,366.198,371.765,371.682z"/>
		<path fill="#E2BA3B" d="M371.104,330.14c-1-14.204-3.231-28.279-3.95-42.505c10.289,9.485,34.843,28.879,38.581,46.634
			c0.277,0.262,0.462,0.643,0.456,1.158c-0.012,0.99,0.032,1.985,0.094,2.98c0.278,0.127,0.517,0.344,0.668,0.662
			c2.666,5.628,4.413,16.019,0.649,21.663c-0.113,4.032-4.096,9.996-5.315,14.023c0.06-0.198,0.381-1.262,0.585-1.936
			c-0.118,0.389-0.3,0.99-0.586,1.937c-0.498,1.648-23.476-14.44-28.264-17.563c0.379,0.145,0.761,0.244,1.141,0.368
			c-2.297-2.133-1.842-6.252-1.498-9.546c0.003-0.102,0.013-0.206,0.017-0.309C370.64,343.58,371.579,336.883,371.104,330.14z"/>
		<path fill="#E2BA3B" d="M325.513,287.298l-1.071-4.527c9.081,8.707,25.761,19.974,30.65,31.652
			c3.713,8.868,1.508,21.364,2.953,31.073c-17.61-15.068-25.566-36.102-32.524-58.174
			C325.518,287.313,325.516,287.308,325.513,287.298c-0.018-0.059-0.03-0.095-0.044-0.139
			C325.483,287.202,325.497,287.247,325.513,287.298z"/>
		<path fill="#E2BA3B" d="M521.412,746.95C521.473,746.831,521.481,746.816,521.412,746.95L521.412,746.95z"/>
		<path fill="#E2BA3B" d="M411.826,406.08C411.828,406.125,411.828,406.126,411.826,406.08L411.826,406.08z"/>
		<path fill="#E2BA3B" d="M325.44,287.067C325.385,286.893,325.398,286.932,325.44,287.067L325.44,287.067z"/>
		<path fill="#E2BA3B" d="M325.707,287.915C325.781,288.148,325.811,288.244,325.707,287.915L325.707,287.915z"/>
		<path fill="#E2BA3B" d="M458.89,940.906C458.905,940.915,458.024,943.199,458.89,940.906
			C458.89,940.906,458.786,941.18,458.89,940.906z"/>
		<path fill="#E2BA3B" d="M551.607,623.309c0,0,0.115-0.168,0.176-0.254C551.692,623.186,551.607,623.309,551.607,623.309z"/>
		<path fill="#E2BA3B" d="M551.785,623.051c0,0-0.002,0.003-0.002,0.004C551.784,623.054,551.785,623.053,551.785,623.051z"/>
	</g>
</g>
</svg>
